<?xml version="1.0" encoding="UTF-8" standalone="no"?>
<!-- Created with Inkscape (http://www.inkscape.org/) -->

<svg
   xmlns:dc="http://purl.org/dc/elements/1.1/"
   xmlns:cc="http://creativecommons.org/ns#"
   xmlns:rdf="http://www.w3.org/1999/02/22-rdf-syntax-ns#"
   xmlns:svg="http://www.w3.org/2000/svg"
   xmlns="http://www.w3.org/2000/svg"
   xmlns:sodipodi="http://sodipodi.sourceforge.net/DTD/sodipodi-0.dtd"
   xmlns:inkscape="http://www.inkscape.org/namespaces/inkscape"
   width="400"
   height="300"
   viewBox="0 0 105.83333 79.375002"
   version="1.1"
   id="svg8"
   inkscape:version="0.92.5 (2060ec1f9f, 2020-04-08)"
   sodipodi:docname="linkr.svg">
  <defs
     id="defs2">
    <filter
       inkscape:collect="always"
       style="color-interpolation-filters:sRGB"
       id="filter1734"
       x="-0.16319999"
       width="1.3264"
       y="-0.27200001"
       height="1.544">
      <feGaussianBlur
         inkscape:collect="always"
         stdDeviation="42.151905"
         id="feGaussianBlur1736" />
    </filter>
  </defs>
  <sodipodi:namedview
     id="base"
     pagecolor="#ffffff"
     bordercolor="#666666"
     borderopacity="1.0"
     inkscape:pageopacity="0.0"
     inkscape:pageshadow="2"
     inkscape:zoom="0.98994949"
     inkscape:cx="199.34819"
     inkscape:cy="128.57143"
     inkscape:document-units="mm"
     inkscape:current-layer="layer1"
     showgrid="false"
     inkscape:window-width="1366"
     inkscape:window-height="713"
     inkscape:window-x="0"
     inkscape:window-y="27"
     inkscape:window-maximized="1"
     units="px" />
  <metadata
     id="metadata5">
    <rdf:RDF>
      <cc:Work
         rdf:about="">
        <dc:format>image/svg+xml</dc:format>
        <dc:type
           rdf:resource="http://purl.org/dc/dcmitype/StillImage" />
        <dc:title></dc:title>
      </cc:Work>
    </rdf:RDF>
  </metadata>
  <g
     inkscape:label="Layer 1"
     inkscape:groupmode="layer"
     id="layer1"
     transform="translate(0,-217.62498)">
    <g
       id="g1988"
       transform="matrix(0.24261392,0,0,0.23828368,204.40409,224.26143)">
      <g
         transform="rotate(61.766811,-555.3882,59.253352)"
         id="g1861">
        <path
           style="fill:#3f3d56;stroke-width:0.52143842"
           inkscape:connector-curvature="0"
           d="m -540.21273,69.466468 q -0.65686,0.41403 -1.35965,0.76851 a 16.100189,16.100189 0 0 1 -21.60125,-7.11729 l -3.46859,-6.87814 2.32829,-1.17377 3.46859,6.87816 a 13.474832,13.474832 0 1 0 24.06257,-12.13577 l -14.5671,-28.88435 a 13.474828,13.474828 0 1 0 -24.06257,12.13576 l 5.15737,10.22645 -2.3281,1.17376 -5.15756,-10.22643 a 16.082176,16.082176 0 0 1 28.71896,-14.48333 l 14.5671,28.88435 a 16.08463,16.08463 0 0 1 -5.75806,20.83209 z"
           id="path1780-3" />
        <path
           style="fill:#3f3d56;stroke-width:0.52143842"
           inkscape:connector-curvature="0"
           d="m -538.80381,105.1182 q -0.6478,0.40829 -1.34408,0.75988 a 16.100012,16.100012 0 0 1 -21.60125,-7.117292 l -14.5671,-28.88433 a 16.082176,16.082176 0 0 1 28.71896,-14.48333 l 3.82668,7.5879 -2.32829,1.17376 -3.82649,-7.58792 a 13.474832,13.474832 0 1 0 -24.06257,12.13578 l 14.5671,28.88433 a 13.474828,13.474828 0 1 0 24.06257,-12.13576 l -5.01428,-9.94232 2.32829,-1.17377 5.01409,9.94233 a 16.105065,16.105065 0 0 1 -5.77363,20.840742 z"
           id="path1782-6" />
      </g>
      <g
         transform="translate(-792.91742,7.7195763)"
         id="g994">
        <path
           style="fill:#3f3d56;stroke-width:0.26458332"
           inkscape:connector-curvature="0"
           d="M 103.47889,6.5542359 H 46.036473 V 6.2534523 A 0.8831527,0.8831527 0 0 0 45.153321,5.3702969 h -24.28032 a 0.8831527,0.8831527 0 0 0 -0.883153,0.8831554 v 0.3007836 h -57.679203 a 3.8855438,3.8855438 0 0 0 -3.885546,3.8855461 v 78.656341 a 3.8855438,3.8855438 0 0 0 3.885546,3.885546 H 103.47887 a 3.8855623,3.8855623 0 0 0 3.88558,-3.885559 V 10.439782 a 3.8855464,3.8855464 0 0 0 -3.88556,-3.8855461 z"
           id="path819" />
        <path
           style="fill:#ffffff;stroke-width:0.26458332"
           inkscape:connector-curvature="0"
           d="m -34.599299,13.215476 a 0.44851637,0.44851637 0 0 0 -0.443384,0.452361 V 89.78555 a 0.44851637,0.44851637 0 0 0 0.443384,0.452361 H 100.3887 a 0.44851902,0.44851902 0 0 0 0.44339,-0.452361 V 13.667837 a 0.44851902,0.44851902 0 0 0 -0.44339,-0.452361 z"
           id="path821" />
        <circle
           style="fill:#6c63ff;stroke-width:0.26458332"
           cx="32.776367"
           cy="9.8692608"
           r="1.4207251"
           id="circle823" />
        <path
           style="fill:#3f3d56;stroke-width:0.26458332"
           inkscape:connector-curvature="0"
           d="M 109.95146,87.680491 H 96.432745 v -1.396095 c 0,-0.07668 -0.08646,-0.13883 -0.193125,-0.13883 h -4.634989 c -0.106664,0 -0.193124,0.06215 -0.193124,0.13883 v 1.396103 h -2.896868 v -1.396103 c 0,-0.07668 -0.08646,-0.13883 -0.193124,-0.13883 h -4.63499 c -0.106664,0 -0.193124,0.06215 -0.193124,0.13883 v 1.396103 h -2.896868 v -1.396103 c 0,-0.07668 -0.08646,-0.13883 -0.193124,-0.13883 h -4.63499 c -0.106664,0 -0.193124,0.06215 -0.193124,0.13883 v 1.396103 h -2.89687 v -1.396103 c 0,-0.07668 -0.08646,-0.13883 -0.193125,-0.13883 h -4.634989 c -0.106664,0 -0.193125,0.06215 -0.193125,0.13883 v 1.396103 h -2.896867 v -1.396103 c 0,-0.07668 -0.08646,-0.13883 -0.193125,-0.13883 h -4.634989 c -0.106664,0 -0.193125,0.06215 -0.193125,0.13883 v 1.396103 h -2.896867 v -1.396103 c 0,-0.07668 -0.08646,-0.13883 -0.193125,-0.13883 h -4.634989 c -0.106664,0 -0.193125,0.06215 -0.193125,0.13883 v 1.396103 h -2.896872 v -1.396103 c 0,-0.07668 -0.08646,-0.13883 -0.193125,-0.13883 H 12.423564 c -0.106664,0 -0.193125,0.06215 -0.193125,0.13883 v 1.396103 H 9.3335718 v -1.396103 c 0,-0.07668 -0.08646,-0.13883 -0.1931246,-0.13883 H 4.5054579 c -0.1066641,0 -0.1931247,0.06215 -0.1931247,0.13883 v 1.396103 H 1.4154633 v -1.396103 c 0,-0.07668 -0.086461,-0.13883 -0.1931247,-0.13883 h -4.6349893 c -0.1066641,0 -0.1931247,0.06215 -0.1931247,0.13883 v 1.396103 h -2.8968673 v -1.396103 c 0,-0.07668 -0.086461,-0.13883 -0.1931247,-0.13883 h -4.6349896 c -0.106664,0 -0.193124,0.06215 -0.193124,0.13883 v 1.396103 h -2.896868 v -1.396103 c 0,-0.07668 -0.08646,-0.13883 -0.193124,-0.13883 h -4.63499 c -0.106664,0 -0.193124,0.06215 -0.193124,0.13883 v 1.396103 h -2.89687 v -1.396103 c 0,-0.07668 -0.08646,-0.13883 -0.193125,-0.13883 h -4.634989 c -0.106664,0 -0.193125,0.06215 -0.193125,0.13883 v 1.396103 h -2.896862 v -1.396103 c 0,-0.07668 -0.08646,-0.13883 -0.193125,-0.13883 h -4.634991 c -0.106665,0 -0.193125,0.06215 -0.193125,0.13883 v 1.396103 h -8.883729 c -2.559844,0 -4.63499,1.491752 -4.63499,3.331916 v 1.506614 c 0,1.840159 2.075159,3.331898 4.63499,3.331898 H 109.95146 c 2.55985,0 4.635,-1.49175 4.635,-3.331898 v -1.506614 c 0,-1.840172 -2.07515,-3.331924 -4.635,-3.331924 z"
           id="path825" />
        <rect
           style="fill:#e6e6e6;stroke-width:0.26458332"
           x="34.614807"
           y="28.147541"
           width="51.209522"
           height="49.324512"
           rx="0.94250673"
           id="rect827" />
        <rect
           style="fill:#6c63ff;stroke-width:0.26458332"
           x="-49.590233"
           y="36.374573"
           width="99.030602"
           height="32.262096"
           id="rect851" />
        <rect
           style="fill:#ffffff;stroke-width:0.26458332"
           x="-30.373241"
           y="40.442398"
           width="5.6107988"
           height="5.6107988"
           id="rect861" />
        <rect
           style="fill:#ffffff;stroke-width:0.26458332"
           x="-14.943546"
           y="42.967262"
           width="45.166935"
           height="0.56108069"
           id="rect863" />
        <rect
           style="fill:#ffffff;stroke-width:0.26458332"
           x="-30.373241"
           y="49.700214"
           width="5.6107988"
           height="5.6107988"
           id="rect865" />
        <rect
           style="fill:#ffffff;stroke-width:0.26458332"
           x="-14.943546"
           y="52.225079"
           width="45.166935"
           height="0.56108069"
           id="rect867" />
        <rect
           style="fill:#ffffff;stroke-width:0.26458332"
           x="-30.373241"
           y="58.958038"
           width="5.6107988"
           height="5.6107988"
           id="rect869" />
        <rect
           style="fill:#ffffff;stroke-width:0.26458332"
           x="-14.943546"
           y="61.482895"
           width="45.166935"
           height="0.56108069"
           id="rect871" />
      </g>
      <g
         transform="translate(-176.89286,74.083333)"
         id="g980">
        <path
           style="fill:#3f3d56;stroke-width:0.26458332"
           inkscape:connector-curvature="0"
           d="m -331.0962,231.17678 c -0.73406,0 -1.47562,-0.0116 -2.20348,-0.0344 l 0.0165,-0.52865 c 1.04516,0.0326 2.11176,0.0416 3.16183,0.0271 l 0.007,0.52916 q -0.49028,0.007 -0.98211,0.007 z m 4.1659,-0.12273 -0.031,-0.52813 c 1.0467,-0.0618 2.10685,-0.14857 3.15097,-0.25787 l 0.0553,0.52607 c -1.05214,0.11033 -2.12029,0.19792 -3.17527,0.25993 z m -9.55033,-0.0824 c -1.05549,-0.0809 -2.12209,-0.18681 -3.17035,-0.31549 l 0.0646,-0.52503 c 1.04025,0.12738 2.09858,0.2328 3.14606,0.3129 z m 15.88534,-0.58188 -0.0793,-0.52297 c 1.03998,-0.15787 2.08798,-0.34106 3.11402,-0.54492 l 0.10309,0.51883 c -1.03404,0.2054 -2.08979,0.39016 -3.13779,0.54906 z m -22.20782,-0.19353 c -1.0427,-0.17674 -2.09522,-0.37982 -3.12823,-0.6041 l 0.11227,-0.51728 c 1.02513,0.22273 2.06951,0.42427 3.10433,0.59945 z m 28.4555,-1.04826 -0.12712,-0.51366 c 1.02086,-0.25244 2.04742,-0.53149 3.05123,-0.82915 l 0.15038,0.50747 c -1.01157,0.29998 -2.04587,0.5811 -3.07449,0.83534 z m -34.68057,-0.30334 c -1.02281,-0.27207 -2.05207,-0.57128 -3.05924,-0.88987 l 0.15942,-0.50436 c 0.99955,0.316 2.02093,0.61288 3.03573,0.88264 z m 40.78769,-1.50843 -0.17363,-0.49971 c 0.99063,-0.34443 1.98696,-0.71676 2.96183,-1.10691 l 0.19637,0.49144 c -0.98211,0.393 -1.98618,0.76817 -2.98457,1.11518 z m -46.86975,-0.41445 c -0.99335,-0.36509 -1.9929,-0.75913 -2.97062,-1.17099 l 0.20542,-0.48782 c 0.97022,0.40876 1.96202,0.79969 2.94788,1.1622 z m 52.77766,-1.94949 -0.21911,-0.48163 c 0.95136,-0.43227 1.90765,-0.89374 2.8422,-1.37149 l 0.24082,0.47129 c -0.94181,0.48138 -1.90531,0.9462 -2.86391,1.38183 z m 5.66167,-2.89414 -0.262,-0.4594 c 0.91235,-0.52064 1.82314,-1.0679 2.70655,-1.62678 l 0.28267,0.447 c -0.89012,0.56328 -1.80764,1.11492 -2.72722,1.63918 z m 5.37719,-3.40186 -0.30282,-0.43356 c 0.85912,-0.60023 1.71643,-1.22887 2.54816,-1.86811 l 0.32246,0.41962 c -0.83793,0.64414 -1.70196,1.27744 -2.5678,1.88205 z m -80.65179,-0.74516 c -0.85408,-0.62038 -1.70727,-1.27021 -2.53604,-1.93193 l 0.3302,-0.41341 c 0.82244,0.65655 1.66915,1.30148 2.51665,1.91694 z m 85.69929,-3.13418 -0.34107,-0.40462 c 0.80073,-0.67567 1.59758,-1.37976 2.36885,-2.0929 l 0.35915,0.38861 c -0.77696,0.71855 -1.58001,1.42806 -2.38693,2.1089 z m -90.68012,-0.84284 c -0.79543,-0.6966 -1.58569,-1.4211 -2.34869,-2.15362 l 0.36638,-0.38188 c 0.75732,0.72707 1.54151,1.44616 2.33087,2.13759 z m 95.35606,-3.48221 -0.37672,-0.37156 c 0.73819,-0.74802 1.46839,-1.52213 2.1699,-2.30063 l 0.39325,0.35398 c -0.70694,0.7847 -1.44255,1.56451 -2.18643,2.31819 z m -99.95242,-0.92915 c -0.7298,-0.76739 -1.45056,-1.56063 -2.14225,-2.35748 l 0.39972,-0.34674 c 0.68639,0.7909 1.4016,1.57793 2.12597,2.33939 z m 104.21753,-3.80468 -0.40876,-0.3359 c 0.66688,-0.81158 1.32343,-1.64899 1.95208,-2.48951 l 0.42374,0.31678 c -0.63329,0.84697 -1.29501,1.6911 -1.96706,2.50863 z m -108.39209,-1.00459 c -0.65537,-0.82811 -1.30069,-1.6831 -1.9181,-2.54119 l 0.42942,-0.30903 c 0.61275,0.85137 1.25315,1.6999 1.90363,2.52207 z m 112.20969,-4.10028 -0.4377,-0.29713 c 0.59014,-0.86894 1.16813,-1.7632 1.71772,-2.65849 l 0.45114,0.27698 c -0.55423,0.90201 -1.13662,1.80325 -1.73116,2.67864 z m -115.92742,-1.06608 c -0.57658,-0.88393 -1.14088,-1.79343 -1.67742,-2.70397 l 0.45579,-0.26872 c 0.53252,0.90355 1.09257,1.80635 1.66476,2.6833 z m 119.2652,-4.36846 -0.46302,-0.2558 c 0.50798,-0.91932 1.00149,-1.86346 1.46735,-2.80629 l 0.4744,0.23461 c -0.46922,0.94981 -0.96688,1.90117 -1.47873,2.82748 z m 2.82592,-5.72058 -0.48471,-0.21239 c 0.42168,-0.96299 0.82656,-1.94924 1.20354,-2.93109 l 0.49403,0.18965 c -0.37983,0.9896 -0.78807,1.98334 -1.21286,2.95383 z m -128.03249,-1.1418 c -0.40566,-0.97358 -0.79414,-1.96964 -1.15458,-2.9608 l 0.49739,-0.18086 c 0.3576,0.98366 0.7431,1.97197 1.14553,2.93806 z m 130.32072,-4.8196 -0.50229,-0.1664 c 0.3302,-0.99503 0.64182,-2.01202 0.92604,-3.02307 l 0.50953,0.14314 c -0.28654,1.01881 -0.60074,2.04381 -0.93328,3.04633 z m -132.49462,-1.15962 c -0.31484,-1.00846 -0.61068,-2.03863 -0.87927,-3.06234 l 0.51185,-0.13436 c 0.26652,1.01596 0.56017,2.03838 0.87256,3.03909 z m 134.21933,-4.97282 -0.51547,-0.11989 c 0.23693,-1.01983 0.45345,-2.06137 0.64388,-3.09516 l 0.52039,0.0956 c -0.19172,1.04206 -0.41006,2.09135 -0.6488,3.11945 z m -135.8355,-1.18908 c -0.22066,-1.03352 -0.42039,-2.08643 -0.5935,-3.13004 l 0.52193,-0.0868 c 0.17195,1.03584 0.37013,2.08075 0.58911,3.10627 z m 136.98867,-5.07565 -0.52452,-0.0718 c 0.14237,-1.03638 0.26252,-2.09316 0.35734,-3.14115 l 0.5271,0.0475 c -0.0956,1.05626 -0.21679,2.12106 -0.35993,3.16544 z m -138.0315,-1.2082 c -0.1248,-1.04749 -0.22725,-2.11434 -0.30463,-3.17086 l 0.52787,-0.0388 c 0.0766,1.04877 0.17842,2.10736 0.30231,3.14709 z m 138.60691,-5.13535 -0.52865,-0.0238 c 0.047,-1.04852 0.0711,-2.11202 0.0711,-3.16079 h 0.52917 c -10e-6,1.05678 -0.0241,2.12829 -0.0716,3.18456 z m -139.07187,-1.21749 c -0.0181,-0.6488 -0.0273,-1.31077 -0.0274,-1.96706 q 0,-0.61082 0.0104,-1.21931 l 0.52916,0.009 q -0.0104,0.60384 -0.0104,1.21001 c 1.3e-4,0.65138 0.009,1.30844 0.0271,1.95259 z m 0.63781,-6.33618 -0.52813,-0.0331 c 0.066,-1.0573 0.15722,-2.12519 0.27078,-3.17409 l 0.52607,0.057 c -0.11279,1.04102 -0.20309,2.10078 -0.26872,3.15019 z m 137.63478,-3.22833 c -0.10568,-1.04322 -0.25105,-1.55187 -0.40453,-2.59056 l 0.52349,-0.0773 c 0.15451,1.04658 0.28707,1.84549 0.39377,2.89659 z m -136.95407,-3.0563 -0.52297,-0.0809 c 0.16214,-1.04684 0.3505,-2.10194 0.55992,-3.13637 l 0.51858,0.1049 c -0.20775,1.02655 -0.39469,2.07365 -0.55553,3.11234 z m 136.01546,-2.64996 c -0.2018,-1.03224 -0.42942,-2.07132 -0.67696,-3.08832 l 0.51418,-0.12505 c 0.24934,1.02473 0.47878,2.07183 0.68212,3.11182 z m -134.76205,-3.54578 -0.51328,-0.12868 c 0.25696,-1.02487 0.54157,-2.05827 0.84594,-3.07164 l 0.50668,0.15218 c -0.30191,1.00563 -0.58431,2.03115 -0.83934,3.04814 z m 133.26654,-2.59648 c -0.29507,-1.00757 -0.61754,-2.02107 -0.95834,-3.01274 l 0.50023,-0.17208 c 0.34365,0.99929 0.66869,2.0208 0.96609,3.03599 z m -131.44495,-3.46607 -0.49919,-0.17544 c 0.35166,-1.00033 0.73135,-2.00544 1.12848,-2.98741 l 0.49067,0.19843 c -0.39416,0.97436 -0.77101,1.97184 -1.11996,2.96442 z m 129.39004,-2.51212 c -0.38603,-0.97384 -0.79944,-1.95118 -1.22887,-2.90499 l 0.48266,-0.2173 c 0.43279,0.96118 0.84931,1.94601 1.23817,2.92721 z m -127.01499,-3.36091 -0.48085,-0.22092 c 0.44196,-0.96248 0.91235,-1.92767 1.39811,-2.86869 l 0.47025,0.24262 c -0.48214,0.93393 -0.94891,1.89175 -1.38751,2.84699 z m 124.42522,-2.39068 c -0.4736,-0.93418 -0.97539,-1.8703 -1.49138,-2.782 l 0.46044,-0.26071 c 0.52012,0.91881 1.02552,1.86203 1.50275,2.80345 z m -121.52087,-3.23572 -0.45863,-0.26405 c 0.52787,-0.91661 1.08456,-1.83413 1.65468,-2.72684 l 0.44596,0.28474 c -0.56572,0.88598 -1.11827,1.79652 -1.64201,2.70615 z m 118.41202,-2.25826 c -0.55914,-0.89012 -1.14464,-1.77689 -1.74021,-2.63576 l 0.4346,-0.30153 c 0.60023,0.86545 1.19036,1.75895 1.75364,2.65591 z m -115.00603,-3.07539 -0.43253,-0.3049 c 0.61004,-0.86518 1.24786,-1.72754 1.89613,-2.56315 l 0.41807,0.32427 c -0.64324,0.82941 -1.27641,1.68517 -1.88167,2.54378 z m 111.40651,-2.1146 c -0.63768,-0.83522 -1.30173,-1.66553 -1.9743,-2.46781 l 0.40567,-0.3399 c 0.67747,0.80848 1.34668,1.64499 1.98928,2.48654 z m -107.52949,-2.88368 -0.40281,-0.34313 c 0.68458,-0.80408 1.3981,-1.60443 2.12067,-2.37879 l 0.38679,0.36096 c -0.71701,0.76855 -1.4251,1.56295 -2.10465,2.36096 z m 103.47056,-1.96008 c -0.71081,-0.77373 -1.44823,-1.54061 -2.19134,-2.27906 l 0.37311,-0.37543 c 0.74879,0.74427 1.49163,1.51683 2.20787,2.29637 z m -99.15661,-2.66277 -0.37,-0.37827 c 0.75667,-0.74027 1.5397,-1.47214 2.32712,-2.17519 l 0.35242,0.39481 c -0.78147,0.69764 -1.55855,1.42395 -2.30954,2.15866 z m 94.67265,-1.79382 c -0.77903,-0.70655 -1.58337,-1.4034 -2.39055,-2.07119 l 0.33744,-0.40772 c 0.81313,0.67283 1.62368,1.37498 2.40864,2.08695 z m -89.95821,-2.41613 -0.33408,-0.41031 c 0.81842,-0.66649 1.66423,-1.32382 2.51407,-1.95376 l 0.31522,0.42504 c -0.8435,0.62529 -1.68298,1.27758 -2.49521,1.93904 z m 5.07526,-3.76165 -0.29533,-0.43899 c 0.87592,-0.58937 1.77767,-1.16646 2.68033,-1.71566 l 0.27492,0.45218 c -0.89567,0.54492 -1.79058,1.11775 -2.65992,1.70247 z m 5.39425,-3.28119 -0.254,-0.46432 c 0.92669,-0.50707 1.87689,-0.99903 2.82412,-1.462437 l 0.23254,0.475422 c -0.93998,0.459792 -1.88294,0.948005 -2.80265,1.451335 z m 63.86251,-1.226027 c -0.94155,-0.46909 -1.90609,-0.922295 -2.86676,-1.346946 l 0.21394,-0.483949 c 0.96816,0.427881 1.94019,0.884571 2.88897,1.357283 z m -58.19464,-1.546286 -0.21032,-0.48551 c 0.96841,-0.419743 1.95905,-0.822301 2.94426,-1.19657 l 0.18786,0.494802 c -0.97772,0.371306 -1.96074,0.770766 -2.92179,1.187278 z m 52.40119,-1.014539 c -0.97978,-0.379942 -1.98256,-0.742461 -2.98069,-1.077323 l 0.16846,-0.501779 c 1.00562,0.337576 2.01616,0.702799 3.00343,1.08585 z m -46.4987,-1.226796 -0.16483,-0.502815 c 1.00562,-0.329694 2.03165,-0.64014 3.04942,-0.922422 l 0.14147,0.509786 c -1.01003,0.280207 -2.02819,0.588209 -3.02606,0.915451 z m 40.49805,-0.786776 c -1.00924,-0.287708 -2.03864,-0.555651 -3.05951,-0.796332 l 0.12145,-0.514956 c 1.02887,0.24249 2.06602,0.512498 3.08327,0.802275 z m -34.40682,-0.903692 -0.11782,-0.515858 c 1.03095,-0.235517 2.08114,-0.450102 3.12126,-0.637688 l 0.0941,0.520641 c -1.03237,0.186293 -2.07442,0.399198 -3.09749,0.632905 z m 28.25422,-0.546865 c -1.03043,-0.19341 -2.07997,-0.365482 -3.1197,-0.511469 l 0.0734,-0.523996 c 1.04775,0.147148 2.10555,0.320521 3.14399,0.515342 z m -22.03328,-0.575805 -0.07,-0.524515 c 1.04749,-0.139785 2.11279,-0.25735 3.16621,-0.349075 l 0.046,0.5271 c -1.04542,0.09121 -2.10246,0.20774 -3.14219,0.34649 z m 15.77345,-0.303598 c -1.04231,-0.09818 -2.10322,-0.173893 -3.15355,-0.224663 l 0.0259,-0.528651 c 1.05807,0.05129 2.127,0.127513 3.17732,0.226483 z m -9.4759,-0.245851 -0.0222,-0.528651 c 0.97255,-0.04057 1.96371,-0.06123 2.94633,-0.06149 l 0.23952,2.64e-4 -0.002,0.529167 -0.23797,-2.65e-4 c -0.97513,2.6e-4 -1.95905,0.0208 -2.92411,0.06098 z"
           id="path918" />
        <circle
           style="fill:#6c63ff;stroke-width:0.26458332"
           cx="-332.49622"
           cy="160.34392"
           r="21.43125"
           id="circle942" />
        <polygon
           style="fill:#ffffff"
           points="315.961,299.862 272.961,299.862 272.961,315.862 315.961,315.862 315.961,358.862 331.961,358.862 331.961,315.862 374.961,315.862 374.961,299.862 331.961,299.862 331.961,256.862 315.961,256.862 "
           id="polygon944"
           transform="matrix(0.26458333,0,0,0.26458333,-418.21088,78.888845)" />
        <rect
           style="fill:#f2f2f2;stroke-width:0.26458332"
           x="-399.26447"
           y="196.54631"
           width="29.144588"
           height="33.954861"
           id="rect946" />
        <path
           style="fill:#3f3d56;stroke-width:0.26458332"
           inkscape:connector-curvature="0"
           d="m -358.80158,230.78414 h -40.74583 v -40.74583 h 40.74583 z m -40.17992,-0.56592 h 39.614 v -39.614 h -39.614 z"
           id="path948" />
        <rect
           style="fill:#3f3d56;stroke-width:0.26458332"
           x="-391.05872"
           y="201.9225"
           width="24.90023"
           height="0.56591463"
           id="rect950" />
        <rect
           style="fill:#3f3d56;stroke-width:0.26458332"
           x="-391.05872"
           y="208.14757"
           width="24.90023"
           height="0.56591463"
           id="rect952" />
        <rect
           style="fill:#3f3d56;stroke-width:0.26458332"
           x="-391.05872"
           y="214.37263"
           width="24.90023"
           height="0.56591463"
           id="rect954" />
        <rect
           style="fill:#f2f2f2;stroke-width:0.26458332"
           x="-358.73477"
           y="84.930496"
           width="58.737499"
           height="29.147932"
           id="rect956" />
        <path
           style="fill:#3f3d56;stroke-width:0.26458332"
           inkscape:connector-curvature="0"
           d="m -288.09101,114.34301 h -70.90833 V 78.888845 h 70.90833 z m -70.37916,-0.52917 h 69.85 V 79.418011 h -69.85 z"
           id="path958" />
        <rect
           style="fill:#3f3d56;stroke-width:0.26458332"
           x="-348.40787"
           y="93.683548"
           width="38.083721"
           height="0.52916664"
           id="rect960" />
        <rect
           style="fill:#3f3d56;stroke-width:0.26458332"
           x="-348.40787"
           y="99.239799"
           width="38.083721"
           height="0.52916664"
           id="rect962" />
        <rect
           style="fill:#3f3d56;stroke-width:0.26458332"
           x="-348.40787"
           y="104.79605"
           width="38.083721"
           height="0.52916664"
           id="rect964" />
        <rect
           style="fill:#f2f2f2;stroke-width:0.26458332"
           x="-277.99207"
           y="158.49184"
           width="25.135416"
           height="26.722916"
           id="rect966" />
        <path
           style="fill:#3f3d56;stroke-width:0.26458332"
           inkscape:connector-curvature="0"
           d="m -246.50663,185.47933 h -31.75 v -31.75 h 31.75 z m -31.22083,-0.52916 h 30.69166 V 154.2585 h -30.69166 z"
           id="path968" />
        <rect
           style="fill:#3f3d56;stroke-width:0.26458332"
           x="-274.15558"
           y="168.14912"
           width="17.4625"
           height="0.52916664"
           id="rect970" />
        <rect
           style="fill:#3f3d56;stroke-width:0.26458332"
           x="-274.15558"
           y="171.58871"
           width="17.4625"
           height="0.52916664"
           id="rect972" />
        <rect
           style="fill:#3f3d56;stroke-width:0.26458332"
           x="-274.15558"
           y="175.02829"
           width="17.4625"
           height="0.52916664"
           id="rect974" />
        <rect
           style="fill:#3f3d56;stroke-width:0.26458332"
           x="-384.07474"
           y="113.81384"
           width="121.05914"
           height="0.52916664"
           id="rect976" />
        <rect
           style="fill:#3f3d56;stroke-width:0.26458332"
           x="-295.58685"
           y="184.95016"
           width="66.410416"
           height="0.52916664"
           id="rect978" />
        <rect
           style="fill:#3f3d56;stroke-width:0.26458332"
           x="-418.21088"
           y="230.4585"
           width="78.072754"
           height="0.52916664"
           id="rect980" />
      </g>
      <rect
         transform="matrix(0.42996323,0,0,0.56715694,-408.84295,39.353027)"
         y="-17.328316"
         x="-835.53436"
         height="371.92856"
         width="619.88098"
         id="rect996"
         style="opacity:1;fill:#ffffff;fill-opacity:0.78661092;stroke:none;stroke-width:1.73784983;stroke-miterlimit:4;stroke-dasharray:none;stroke-opacity:1;filter:url(#filter1734)" />
      <text
         id="text890"
         y="229.73123"
         x="-836.99695"
         style="font-style:normal;font-weight:normal;font-size:20.16032219px;line-height:1.25;font-family:sans-serif;letter-spacing:0px;word-spacing:0px;fill:#5a45ff;fill-opacity:1;stroke:none;stroke-width:0.504008"
         xml:space="preserve"><tspan
           style="font-style:normal;font-variant:normal;font-weight:500;font-stretch:normal;font-size:201.60322571px;font-family:Poppins;-inkscape-font-specification:'Poppins Medium';fill:#5a45ff;fill-opacity:1;stroke-width:0.504008"
           y="229.73123"
           x="-836.99695"
           id="tspan888"
           sodipodi:role="line">Lnkr</tspan></text>
    </g>
  </g>
</svg>
